<?xml version="1.0" encoding="UTF-8" standalone="no"?>
<!-- Generator: Adobe Illustrator 19.0.0, SVG Export Plug-In . SVG Version: 6.00 Build 0)  -->

<svg
   version="1.1"
   id="Layer_1"
   x="0px"
   y="0px"
   viewBox="0 0 100 120"
   xml:space="preserve"
   sodipodi:docname="puzzle.svg"
   inkscape:version="1.1 (c68e22c387, 2021-05-23)"
   width="100"
   height="120"
   xmlns:inkscape="http://www.inkscape.org/namespaces/inkscape"
   xmlns:sodipodi="http://sodipodi.sourceforge.net/DTD/sodipodi-0.dtd"
   xmlns="http://www.w3.org/2000/svg"
   xmlns:svg="http://www.w3.org/2000/svg"><defs
   id="defs47">
	

		
	
			
			
			
		</defs><sodipodi:namedview
   id="namedview45"
   pagecolor="#ffffff"
   bordercolor="#666666"
   borderopacity="1.0"
   inkscape:pageshadow="2"
   inkscape:pageopacity="0.0"
   inkscape:pagecheckerboard="0"
   showgrid="false"
   inkscape:zoom="1.2085538"
   inkscape:cx="299.94527"
   inkscape:cy="243.67968"
   inkscape:window-width="1920"
   inkscape:window-height="1017"
   inkscape:window-x="3832"
   inkscape:window-y="-8"
   inkscape:window-maximized="1"
   inkscape:current-layer="Layer_1"
   fit-margin-top="0"
   fit-margin-left="0"
   fit-margin-right="0"
   fit-margin-bottom="0" />

<g
   id="g14"
   transform="translate(-0.00195297,-8.2339577e-4)">
</g>
<g
   id="g16"
   transform="translate(-0.00195297,-8.2339577e-4)">
</g>
<g
   id="g18"
   transform="translate(-0.00195297,-8.2339577e-4)">
</g>
<g
   id="g20"
   transform="translate(-0.00195297,-8.2339577e-4)">
</g>
<g
   id="g22"
   transform="translate(-0.00195297,-8.2339577e-4)">
</g>
<g
   id="g24"
   transform="translate(-0.00195297,-8.2339577e-4)">
</g>
<g
   id="g26"
   transform="translate(-0.00195297,-8.2339577e-4)">
</g>
<g
   id="g28"
   transform="translate(-0.00195297,-8.2339577e-4)">
</g>
<g
   id="g30"
   transform="translate(-0.00195297,-8.2339577e-4)">
</g>
<g
   id="g32"
   transform="translate(-0.00195297,-8.2339577e-4)">
</g>
<g
   id="g34"
   transform="translate(-0.00195297,-8.2339577e-4)">
</g>
<g
   id="g36"
   transform="translate(-0.00195297,-8.2339577e-4)">
</g>
<g
   id="g38"
   transform="translate(-0.00195297,-8.2339577e-4)">
</g>
<g
   id="g40"
   transform="translate(-0.00195297,-8.2339577e-4)">
</g>
<g
   id="g42"
   transform="translate(-0.00195297,-8.2339577e-4)">
</g>
<g
   id="g1067"><g
     id="g1370"
     transform="matrix(0.19920311,0,0,0.19920311,-3.8903622e-4,-1.64023e-4)"
     style="fill:#d6d8da;fill-opacity:1"><path
       style="fill:#d6d8da;fill-opacity:1;stroke:none;stroke-opacity:1"
       d="m 192.5332,20.041016 c 14.293,-0.563 27.82261,4.57989 38.09961,14.46289 10.282,9.889 15.94531,23.187219 15.94531,37.449219 0,8.177 -1.84637,15.998094 -5.48437,23.246094 -4.082,8.131001 -3.67606,17.594501 1.08594,25.312501 4.729,7.666 12.93898,12.24414 21.95898,12.24414 h 105.10742 v 105.09961 c 0,8.996 4.5555,17.18434 12.1875,21.90234 7.745,4.787 17.26103,5.19752 25.45703,1.10352 8.022,-4.009 17.06563,-5.85747 26.14063,-5.35547 26.404,1.47 47.89669,23.3363 48.92969,49.7793 0.559,14.292 -4.57599,27.82161 -14.45899,38.09961 -9.89,10.283 -23.19112,15.94531 -37.45312,15.94531 -8.177,0 -15.9981,-1.84442 -23.2461,-5.48242 -8.131,-4.081 -17.5935,-3.67507 -25.3125,1.08593 -7.666,4.729 -12.24218,12.93899 -12.24218,21.95899 V 481.99805 H 264.14648 c -2.8,0 -4.26562,-1.69313 -4.89062,-2.70313 -0.536,-0.867 -1.63156,-3.18695 -0.22656,-6.00195 5.561,-11.129 8.13354,-23.64636 7.43554,-36.19336 -2.038,-36.59 -32.33565,-66.36983 -68.97265,-67.79883 -0.971,-0.036 -1.94125,-0.0566 -2.90625,-0.0566 -18.701,0 -36.29999,7.06989 -49.83399,20.08789 -14.24,13.694 -22.08203,32.11519 -22.08203,51.86719 0,11.32 2.55942,22.15975 7.60742,32.21875 1.364,2.718 0.29158,4.98884 -0.23242,5.83984 -0.633,1.025 -2.1145,2.74414 -4.9375,2.74414 H 20.001953 V 376.89453 c 0,-2.822 1.719141,-4.3045 2.744141,-4.9375 0.85,-0.524 3.11989,-1.59842 5.83789,-0.23242 10.06,5.05 20.89775,7.60742 32.21875,7.60742 19.752,0 38.172185,-7.84108 51.867186,-22.08008 13.688,-14.234 20.8023,-32.96714 20.0293,-52.74414 -1.43,-36.638 -31.21078,-66.93175 -67.800782,-68.96875 -12.555,-0.7 -25.062407,1.8736 -36.191407,7.4336 -2.813,1.404 -5.133953,0.31043 -6.001953,-0.22657 -1.01,-0.624 -2.703125,-2.08867 -2.703125,-4.88867 V 132.75781 H 125.10156 c 8.995,0 17.18339,-4.5565 21.90039,-12.1875 4.788,-7.744 5.20147,-17.26198 1.10547,-25.458982 -4.009,-8.024 -5.85951,-17.061578 -5.35351,-26.142578 1.47,-26.404 23.33529,-47.896734 49.77929,-48.927734 z"
       id="path1267" /><path
       style="fill:#d6d8da;fill-opacity:1;stroke:none;stroke-opacity:1"
       d="m 191.75586,0.05859375 c -36.638,1.42900005 -66.9337,31.20882825 -68.9707,67.79882825 -0.699,12.547 1.87159,25.063359 7.43359,36.193358 1.405,2.813 0.31044,5.13495 -0.22656,6.00195 -0.624,1.01 -2.09063,2.70508 -4.89063,2.70508 H 10.001953 c -5.5219998,0 -9.99999987,4.478 -9.99999987,10 v 115.09961 c 0,8.995 4.55454697,17.18339 12.18554687,21.90039 7.744,4.788 17.261984,5.20047 25.458984,1.10547 8.023,-4.009 17.064578,-5.85747 26.142578,-5.35547 26.404001,1.47 47.894738,23.3363 48.927738,49.7793 0.558,14.292 -4.57694,27.82261 -14.460941,38.09961 -9.889,10.283 -23.189171,15.94531 -37.451171,15.94531 -8.177,0 -15.998094,-1.84442 -23.246094,-5.48242 -8.132,-4.081 -17.5925,-3.67606 -25.3125,1.08594 -7.6660002,4.729 -12.24414087,12.93898 -12.24414087,21.95898 v 115.10742 c -0.001000005,5.522 4.47800007,10 9.99999987,10 H 125.10938 c 9.02,0 17.22803,-4.57814 21.95703,-12.24414 4.762,-7.72 5.16893,-17.1825 1.08593,-25.3125 -3.638,-7.247 -5.48242,-15.06909 -5.48242,-23.24609 0,-14.262 5.66331,-27.56317 15.94531,-37.45117 10.276,-9.885 23.82061,-15.01594 38.09961,-14.46094 26.443,1.031 48.31125,22.52373 49.78125,48.92773 0.505,9.08 -1.34846,18.11958 -5.35547,26.14258 -4.096,8.198 -3.68253,17.71499 1.10547,25.45899 4.718,7.631 12.90244,12.1875 21.89844,12.1875 h 115.10156 c 5.522,0 10,-4.478 10,-10 V 376.89453 c 0,-2.822 1.71719,-4.3045 2.74219,-4.9375 0.85,-0.523 3.1198,-1.59742 5.8418,-0.23242 10.058,5.05 20.89579,7.60742 32.2168,7.60742 19.75299,0 38.17414,-7.84203 51.86914,-22.08203 13.689,-14.234 20.80129,-32.96519 20.02929,-52.74219 -1.43,-36.637 -31.21273,-66.93175 -67.80273,-68.96875 -12.553,-0.7 -25.06045,1.8736 -36.18946,7.4336 -2.813,1.404 -5.13595,0.31043 -6.00195,-0.22657 -1.011,-0.625 -2.70508,-2.08867 -2.70508,-4.88867 V 122.75781 c 0,-5.522 -4.478,-10 -10,-10 H 264.13867 c -2.822,0 -4.30255,-1.71914 -4.93555,-2.74414 -0.52399,-0.851 -1.59937,-3.12184 -0.23437,-5.83984 5.05,-10.058002 7.60937,-20.897752 7.60937,-32.218752 10e-6,-19.752 -7.84203,-38.171234 -22.08203,-51.865234 C 230.26409,6.4008438 211.54886,-0.72040625 191.75586,0.05859375 Z"
       id="path2" /></g><rect
     style="fill:none;fill-opacity:1;stroke-width:4.55107;stroke-linecap:round;paint-order:fill markers stroke"
     id="rect945"
     width="100"
     height="120"
     x="1.0204952e-06"
     y="-4.206413e-12" /></g></svg>
